<svg width="145" height="29" viewBox="0 0 145 29" fill="none" xmlns="http://www.w3.org/2000/svg">
<path d="M144.842 23.026C144.842 24.2075 144.492 25.3625 143.835 26.345C143.179 27.3274 142.246 28.0931 141.154 28.5452C140.063 28.9974 138.861 29.1157 137.703 28.8852C136.544 28.6547 135.479 28.0857 134.644 27.2502C133.808 26.4148 133.239 25.3503 133.009 24.1915C132.778 23.0326 132.897 21.8314 133.349 20.7398C133.801 19.6482 134.567 18.7152 135.549 18.0588C136.531 17.4023 137.687 17.052 138.868 17.052C140.452 17.052 141.972 17.6814 143.092 18.8017C144.213 19.9221 144.842 21.4416 144.842 23.026Z" fill="#508991"/>
<path d="M12.4269 13.9919H14.646C17.1687 13.9919 18.6987 12.4327 18.9732 10.4881C19.2068 8.81211 18.0388 6.98428 15.6621 6.98428H13.5306L12.4269 13.9919ZM124.707 9.94501L129.764 0.461337H141.391L123.872 28.235H111.988L117.612 20.3105L111.188 1.03947L106.808 28.2233H97.5113L91.8001 15.3759L89.7329 28.2233H80.4302L84.9034 0.449655H94.4513L99.9874 12.8765L101.99 0.449655H122.324L124.707 9.94501ZM81.2303 0.461337L76.757 28.235H67.4252L61.714 15.3876L59.6467 28.235H50.3441L54.8173 0.461337H64.3652L69.8954 12.8882L71.8984 0.461337H81.2303ZM18.3367 0.0408777C24.7603 0.0408777 29.1226 3.5447 29.1635 9.12745L30.53 0.455496H51.5938L50.4609 7.46313H39.3654L38.8107 10.7918H48.8725L47.7512 17.7352H37.6427L37.0587 21.1864H48.3878L47.2549 28.1941H26.0626L28.4861 13.1568C26.8568 18.0272 22.4128 20.8944 16.5964 20.8944H11.2589L10.091 28.1941H0L4.54329 0L18.3367 0.0408777Z" fill="#508991"/>
</svg>
